<svg xmlns="http://www.w3.org/2000/svg" width="512" height="512" viewBox="0 0 512 512" version="1.1">
  <path d="M 239.5,106.6 C 147.5,152.4 72,190.7 71,191.7 70,192.7 69,194.9 69,196.5 69,198.1 70,200.3 71,201.3 72,202.3 147.5,240.6 239.5,286.4 L 406,369.5 407.8,368.3 C 408.7,367.6 484.2,329.3 575,283.9 L 740,200.8 740,196.5 740,192.2 575,109.1 C 484.2,63.7 408.7,25.4 407.8,24.7 L 406,23.5 239.5,106.6 Z"/>
  <path d="M 155,290.7 C 155,292.5 156.1,294.9 157.5,296 159.6,297.7 207.1,326.1 211.1,327.9 215.3,329.8 222.2,331 227.5,331 232.8,331 239.7,329.8 243.9,327.9 247.9,326.1 295.4,297.7 297.5,296 298.9,294.9 300,292.5 300,290.7 L 300,287.5 227.5,287.5 155,287.5 155,290.7 Z"/>
</svg>
